# xmcd CD database file generated by Grip 3.2.0
# 
# Track frame offsets:
#       150
#       26711
#       57729
#       89043
#       110868
#       130344
#       156748
#       176749
# 
# Disc length: 3008 seconds
# 
# Revision: 5
# Processed by: cddbd v1.5.2PL0 Copyright (c) Steve Scherf et al.
# Submitted via: Grip 3.2.0
# 
DISCID=800bbe08
DTITLE=John Mayall's Bluesbreakers - Blues Forever
DYEAR=2000
DGENRE=Blues
TTITLE0=Ridin' on The L&n
TTITLE1=Help Me
TTITLE2=Racehorse Man
TTITLE3=All Your Love
TTITLE4=I Ain't Got You
TTITLE5=Wild About You
TTITLE6=It Ain't Right
TTITLE7=Room to Move
EXTD=This compilation: Copyright 1997 Charly Records (Portugal) Ltd.
EXTT0=
EXTT1=
EXTT2=
EXTT3=
EXTT4=
EXTT5=
EXTT6=
EXTT7=
PLAYORDER=
